<svg viewBox="43.5875 126.98799999999999 137 27" xmlns="http://www.w3.org/2000/svg" style="max-height: 500px" width="137" height="27"><path style="fill: rgb(0, 74, 173); text-wrap-mode: nowrap;" d="M 54.018 149.711 Q 51.966 149.711 50.36 149.023 Q 48.753 148.334 47.822 147.133 Q 46.89 145.931 46.782 144.419 L 51.912 144.419 Q 52.02 145.148 52.587 145.553 Q 53.154 145.958 53.991 145.958 Q 54.639 145.958 55.017 145.688 Q 55.395 145.418 55.395 144.986 Q 55.395 144.419 54.774 144.149 Q 54.153 143.879 52.722 143.555 Q 51.102 143.231 50.022 142.826 Q 48.942 142.421 48.146 141.503 Q 47.349 140.585 47.349 139.019 Q 47.349 137.669 48.078 136.576 Q 48.807 135.482 50.225 134.834 Q 51.642 134.186 53.64 134.186 Q 56.61 134.186 58.311 135.644 Q 60.012 137.102 60.282 139.478 L 55.503 139.478 Q 55.368 138.749 54.869 138.358 Q 54.369 137.966 53.532 137.966 Q 52.884 137.966 52.547 138.209 Q 52.209 138.452 52.209 138.884 Q 52.209 139.424 52.83 139.708 Q 53.451 139.991 54.828 140.288 Q 56.475 140.639 57.569 141.071 Q 58.662 141.503 59.486 142.462 Q 60.309 143.42 60.309 145.067 Q 60.309 146.39 59.54 147.443 Q 58.77 148.496 57.353 149.104 Q 55.935 149.711 54.018 149.711 Z M 82.682 134.24 Q 85.544 134.24 87.177 135.968 Q 88.811 137.696 88.811 140.693 L 88.811 149.522 L 83.519 149.522 L 83.519 141.395 Q 83.519 140.18 82.844 139.505 Q 82.169 138.83 81.008 138.83 Q 79.847 138.83 79.172 139.505 Q 78.497 140.18 78.497 141.395 L 78.497 149.522 L 73.205 149.522 L 73.205 141.395 Q 73.205 140.18 72.543 139.505 Q 71.882 138.83 70.721 138.83 Q 69.533 138.83 68.858 139.505 Q 68.183 140.18 68.183 141.395 L 68.183 149.522 L 62.891 149.522 L 62.891 134.375 L 68.183 134.375 L 68.183 136.373 Q 68.885 135.401 70.005 134.821 Q 71.126 134.24 72.584 134.24 Q 74.258 134.24 75.567 134.969 Q 76.877 135.698 77.633 137.021 Q 78.443 135.779 79.766 135.01 Q 81.089 134.24 82.682 134.24 Z M 90.819 141.935 Q 90.819 139.586 91.67 137.831 Q 92.52 136.076 93.992 135.131 Q 95.463 134.186 97.272 134.186 Q 98.838 134.186 99.972 134.807 Q 101.106 135.428 101.727 136.481 L 101.727 134.375 L 107.019 134.375 L 107.019 149.522 L 101.727 149.522 L 101.727 147.416 Q 101.106 148.469 99.959 149.09 Q 98.811 149.711 97.272 149.711 Q 95.463 149.711 93.992 148.766 Q 92.52 147.821 91.67 146.053 Q 90.819 144.284 90.819 141.935 Z M 101.727 141.935 Q 101.727 140.477 100.931 139.64 Q 100.134 138.803 98.973 138.803 Q 97.785 138.803 97.002 139.627 Q 96.219 140.45 96.219 141.935 Q 96.219 143.393 97.002 144.244 Q 97.785 145.094 98.973 145.094 Q 100.134 145.094 100.931 144.257 Q 101.727 143.42 101.727 141.935 Z M 115.329 129.542 L 115.329 149.522 L 110.037 149.522 L 110.037 129.542 Z M 123.646 129.542 L 123.646 149.522 L 118.354 149.522 L 118.354 129.542 Z M 131.954 136.481 Q 132.575 135.401 133.709 134.794 Q 134.843 134.186 136.382 134.186 Q 138.191 134.186 139.662 135.131 Q 141.134 136.076 141.984 137.831 Q 142.835 139.586 142.835 141.935 Q 142.835 144.284 141.984 146.053 Q 141.134 147.821 139.662 148.766 Q 138.191 149.711 136.382 149.711 Q 134.843 149.711 133.709 149.104 Q 132.575 148.496 131.954 147.416 L 131.954 149.522 L 126.662 149.522 L 126.662 129.542 L 131.954 129.542 L 131.954 136.481 Z M 137.462 141.935 Q 137.462 140.45 136.665 139.627 Q 135.869 138.803 134.708 138.803 Q 133.547 138.803 132.75 139.64 Q 131.954 140.477 131.954 141.935 Q 131.954 143.42 132.75 144.257 Q 133.547 145.094 134.708 145.094 Q 135.869 145.094 136.665 144.244 Q 137.462 143.393 137.462 141.935 Z M 160.514 134.375 L 160.514 149.522 L 155.195 149.522 L 155.195 147.362 Q 154.52 148.388 153.332 149.023 Q 152.144 149.657 150.605 149.657 Q 147.959 149.657 146.433 147.916 Q 144.908 146.174 144.908 143.177 L 144.908 134.375 L 150.173 134.375 L 150.173 142.502 Q 150.173 143.798 150.861 144.541 Q 151.55 145.283 152.684 145.283 Q 153.845 145.283 154.52 144.541 Q 155.195 143.798 155.195 142.502 L 155.195 134.375 Z M 169.981 149.711 Q 167.929 149.711 166.323 149.023 Q 164.716 148.334 163.785 147.133 Q 162.853 145.931 162.745 144.419 L 167.875 144.419 Q 167.983 145.148 168.55 145.553 Q 169.117 145.958 169.954 145.958 Q 170.602 145.958 170.98 145.688 Q 171.358 145.418 171.358 144.986 Q 171.358 144.419 170.737 144.149 Q 170.116 143.879 168.685 143.555 Q 167.065 143.231 165.985 142.826 Q 164.905 142.421 164.109 141.503 Q 163.312 140.585 163.312 139.019 Q 163.312 137.669 164.041 136.576 Q 164.77 135.482 166.188 134.834 Q 167.605 134.186 169.603 134.186 Q 172.573 134.186 174.274 135.644 Q 175.975 137.102 176.245 139.478 L 171.466 139.478 Q 171.331 138.749 170.832 138.358 Q 170.332 137.966 169.495 137.966 Q 168.847 137.966 168.51 138.209 Q 168.172 138.452 168.172 138.884 Q 168.172 139.424 168.793 139.708 Q 169.414 139.991 170.791 140.288 Q 172.438 140.639 173.532 141.071 Q 174.625 141.503 175.449 142.462 Q 176.272 143.42 176.272 145.067 Q 176.272 146.39 175.503 147.443 Q 174.733 148.496 173.316 149.104 Q 171.898 149.711 169.981 149.711 Z"/><defs/></svg>